<?xml version="1.0" encoding="utf-8"?>
<!-- Generator: Adobe Illustrator 23.0.4, SVG Export Plug-In . SVG Version: 6.00 Build 0)  -->
<svg version="1.1" id="Layer_1" xmlns="http://www.w3.org/2000/svg" xmlns:xlink="http://www.w3.org/1999/xlink" x="0px" y="0px"
	 viewBox="0 0 792 612" style="enable-background:new 0 0 792 612;" xml:space="preserve">
<style type="text/css">
	.st0{fill:#CFE1AC;stroke:#070707;stroke-miterlimit:10;}
	.st1{fill:#FFFFFF;stroke:#070707;stroke-miterlimit:10;}
	.st2{fill:#070707;}
	.st3{font-family:'SnellRoundhand';}
	.st4{font-size:23px;}
	.st5{fill:#E1A4C6;}
</style>
<rect x="228.38" y="182.25" class="st0" width="254.54" height="134.2"/>
<rect x="247.62" y="198.79" class="st1" width="215.26" height="103.11"/>
<text transform="matrix(1 0 0 1 290.2069 293.3812)" class="st2 st3 st4">Santana Design</text>
<g>
	<g>
		<path class="st2" d="M348.55,227.3c3.97-1.47,8.64-3.41,10.98-7.18c2.75-4.43,0.49-9.43-3.39-12.38
			c-5.93-4.52-16.27-4.28-19.32,3.52c-4.89,12.5,10.52,21.14,16.73,29.43c4.24,5.67,7.09,12.36,8.27,19.34
			c0.75,4.42,1.37,9.08-2.39,12.18c-3.92,3.23-9.42,3.05-14.22,2.12c-7.6-1.48-14.98-5.75-18.73-12.69
			c-2.25-4.16-3.51-9.86-0.04-13.74c1.28-1.43,6.47-3.22,8.42-2.95c1.47,0.2,3.41,1.55,4.4,2.61c0.66,0.7,1.04,1.34,1.5,2.2
			c0.39,0.53,0.65,1.12,0.76,1.77c0.64,1.76-0.39,3.06-3.09,3.92c-0.58-0.39-2.34,0.44-1.52,0.99c2.94,1.99,6.53,0.05,6.79-3.48
			c0.4-5.45-5.71-9.63-10.62-9.49c-4.68,0.13-9.2,3.41-10.42,7.99c-1.76,6.62,2.82,13.72,7.72,17.73
			c7.38,6.04,23.17,10.91,31.21,3.3c4.73-4.48,2.57-12.95,0.93-18.37c-2.25-7.43-6.35-14.07-11.85-19.53
			c-5.88-5.84-17.77-15.8-11.01-25.22c5.13-7.15,17.38-2.18,19.08,5.31c1.48,6.53-6.06,9.9-10.95,11.72
			C346.5,226.86,347.63,227.64,348.55,227.3L348.55,227.3z"/>
	</g>
</g>
<g>
	<g>
		<path class="st5" d="M349.7,249.56c-9.65-24.07-43.11-13.85-61.08-25.5c-0.46-0.3-2.16,0.19-1.65,0.89
			c5.28,7.3,5.95,16.2,8.77,24.5c2.24,6.57,6.15,12.26,11.83,16.34c12.53,9.01,30.52,5.73,42.05,16.43c0.54,0.5,2.36-0.25,1.79-0.78
			c-10.95-10.17-27.42-7.78-39.83-15.02c-7.81-4.56-12.38-11.94-14.81-20.47c-2.15-7.55-3.31-15.28-8.01-21.78
			c-0.55,0.3-1.1,0.59-1.65,0.89c17.94,11.64,51.22,1.46,60.67,25.03C348.06,250.8,349.97,250.23,349.7,249.56L349.7,249.56z"/>
	</g>
</g>
<g>
	<g>
		<path class="st5" d="M359.6,239.88c2.53-8.38,12.93-6.45,19.63-8.29c3.78-1.03,7.08-3,10.03-5.53c-0.58-0.01-1.16-0.02-1.74-0.03
			c-1.2,6.48-2.2,16-7.35,20.61c-3.53,3.16-8.11,4.39-11.11,8.23c-0.52,0.66,1.41,0.52,1.8,0.03c3.46-4.44,9.52-5.56,12.85-10.12
			c3.74-5.14,4.62-12.92,5.74-19c0.15-0.78-1.49-0.24-1.74-0.03c-4.04,3.48-8.42,5.09-13.66,5.72c-3.02,0.37-6.08,0.45-8.97,1.47
			c-3.56,1.26-6.31,3.52-7.42,7.18C357.47,240.78,359.4,240.52,359.6,239.88L359.6,239.88z"/>
	</g>
</g>
<g>
	<g>
		<path class="st5" d="M389.33,241.89c1.06-2.95,7.6-5.47,10.57-5.7c1.34-0.1,2.73,0.11,4.08,0.13c2.58,0.04,5.15-0.08,7.7-0.48
			c4.69-0.73,9.12-2.25,13.38-4.34c-0.49-0.05-0.97-0.11-1.46-0.16c-4.82,5.95-7.08,12.42-8.14,19.94
			c-1.37,9.73-7.12,14.6-16.42,17.26c-8.12,2.32-16.56,2.53-24.7,4.49c-5.48,1.32-7.59,3.66-9.28,9.05
			c-0.16,0.51,1.74,0.26,1.92-0.3c1.5-4.8,2.13-6.48,8.99-8.28c1.64-0.43,3.45-0.47,5.12-0.7c3.94-0.52,7.85-1.16,11.73-1.98
			c5.4-1.14,10.97-2.47,15.75-5.35c4.32-2.6,7.2-6.19,8.3-11.15c0.86-3.87,0.89-7.76,2.12-11.56c1.37-4.24,3.58-8.03,6.38-11.49
			c0.52-0.64-1.28-0.25-1.46-0.16c-5.26,2.57-10.79,4.06-16.65,4.3c-3.33,0.14-6.71-0.41-10.04,0.02c-4.31,0.56-8.27,2.46-9.81,6.76
			C387.24,242.68,389.13,242.45,389.33,241.89L389.33,241.89z"/>
	</g>
</g>
<g>
	<g>
		<path class="st5" d="M392.95,232.39c5.08-0.55,10.14-1.23,15.18-2.13c2.48-0.44,4.94-0.93,7.4-1.46c3.45-0.75,1.68,0.84,0.25,3.03
			c-0.13,0.2,1.59,0.13,1.9-0.34c0.89-1.35,1.77-2.7,2.66-4.05c0.22-0.34-1.01-0.13-1.03-0.12c-8.42,1.95-16.92,3.38-25.52,4.3
			C393.29,231.68,391.7,232.53,392.95,232.39L392.95,232.39z"/>
	</g>
</g>
<g>
	<g>
		<path class="st5" d="M341.21,229.82c-12.48,0.98-24.54-2.19-35-9.04c-0.42-0.27-1.93,0.06-1.73,0.75c0.69,2.35,1.63,4.37,2.96,6.4
			c0.38,0.59,2.26-0.07,1.79-0.78c-1.39-2.13-2.13-3.79-2.82-6.14c-0.58,0.25-1.15,0.5-1.73,0.75c10.85,7.1,23.38,10.23,36.29,9.22
			C341.96,230.91,342.54,229.72,341.21,229.82L341.21,229.82z"/>
	</g>
</g>
<g>
	<g>
		<path class="st5" d="M397.97,272.68c7.4-2.24,14.2,1.15,21.18,3.01c2.29,0.61,4.65,1.12,7.02,1.22c2.74,0.11,6.65-1.52,0.43,1.45
			c-5.98,2.86-12.56,1.62-19.08,2.18c-5.35,0.45-10.97,3.98-16.29,2.91c-0.48-0.1-2.16,0.67-1.58,0.79c3.04,0.61,5.52,0.18,8.5-0.69
			c6.59-1.93,12.68-2.32,19.47-2.51c5.51-0.15,11.8-0.23,15.23-5.22c0.22-0.32-0.75-0.24-0.79-0.23
			c-11.81,2.43-22.36-7.18-34.27-3.57C396.68,272.34,396.83,273.02,397.97,272.68L397.97,272.68z"/>
	</g>
</g>
<g>
	<g>
		<path class="st5" d="M314.86,272.43c-5.17-2.18-9.98-3.64-15.64-2.91c-7.95,1.02-15.8,4.99-23.67,1.32
			c-0.6-0.28-2.41,0.52-1.52,1.01c3.84,2.12,6.26,6.05,10.32,7.82c4.34,1.89,9.48,1.4,12.88,5.18c0.5,0.56,2.35-0.17,1.78-0.79
			c-2.75-3.05-6.4-3.53-10.22-4.5c-5.67-1.44-8.4-6.04-13.24-8.71c-0.51,0.34-1.01,0.67-1.52,1.01c4.64,2.16,9.36,2.05,14.32,1.12
			c3.56-0.67,7.04-1.81,10.64-2.25c5.37-0.65,9.49,0.66,14.35,2.71C313.99,273.7,315.73,272.79,314.86,272.43L314.86,272.43z"/>
	</g>
</g>
<g>
	<g>
		<path class="st5" d="M295.39,255.65c-6.6,1.61-13.12,0.84-19.25-2.01c-0.36-0.17-2.08,0.21-1.68,0.77
			c5.4,7.7,14.1,11.26,22.59,14.49c0.5,0.19,2.25-0.58,1.56-0.84c-8.42-3.21-17-6.73-22.35-14.36c-0.56,0.26-1.12,0.52-1.68,0.77
			c6.73,3.13,13.83,3.7,21.02,1.95C296.75,256.15,296.54,255.37,295.39,255.65L295.39,255.65z"/>
	</g>
</g>
<g>
	<g>
		<path class="st5" d="M417.6,261.52c4.38-1.23,8.72-1.61,13.23-1.04c2.9,0.36,5.42,0.8,8.33,0.25c-0.32-0.28-0.64-0.55-0.95-0.83
			c-3.08,3.28-8.38,2.62-12.39,4.06c-2.92,1.05-5.42,2.76-7.67,4.88c-0.85,0.8,1.03,1,1.59,0.47c4.06-3.83,8.45-4.64,13.65-5.71
			c2.5-0.51,4.64-1.35,6.41-3.24c0.65-0.69-0.46-0.92-0.95-0.83c-4,0.76-8.14-0.7-12.18-0.65c-3.2,0.04-6.31,0.58-9.39,1.44
			C416.11,260.67,416.42,261.85,417.6,261.52L417.6,261.52z"/>
	</g>
</g>
<g>
	<g>
		<path class="st5" d="M481.38,261.13c0.86,0,2-1.3,0.7-1.3C481.22,259.83,480.07,261.13,481.38,261.13L481.38,261.13z"/>
	</g>
</g>
<g>
	<g>
		<path class="st5" d="M544.5,245.36c0.42,0,2.19-0.8,1.25-0.8C545.34,244.57,543.57,245.36,544.5,245.36L544.5,245.36z"/>
	</g>
</g>
<g>
	<g>
		<path class="st5" d="M414.85,257.94c0.75,0,2.04-1.13,0.74-1.13C414.84,256.81,413.54,257.94,414.85,257.94L414.85,257.94z"/>
	</g>
</g>
</svg>
